<svg width="80" height="80" viewBox="0 0 80 80" fill="none" xmlns="http://www.w3.org/2000/svg">
<path opacity="0.3" d="M80 40C80 62.0914 62.0914 80 40 80C17.9086 80 0 62.0914 0 40C0 17.9086 17.9086 0 40 0C62.0914 0 80 17.9086 80 40ZM10.9071 40C10.9071 56.0675 23.9325 69.0929 40 69.0929C56.0675 69.0929 69.0929 56.0675 69.0929 40C69.0929 23.9325 56.0675 10.9071 40 10.9071C23.9325 10.9071 10.9071 23.9325 10.9071 40Z" fill="#2F2E30"/>
<circle cx="40" cy="40" r="29" fill="black"/>
<g clip-path="url(#clip0_2154_1223)">
<path d="M31.6668 51.6667C33.5078 51.6667 35.0002 50.1743 35.0002 48.3333C35.0002 46.4924 33.5078 45 31.6668 45C29.8259 45 28.3335 46.4924 28.3335 48.3333C28.3335 50.1743 29.8259 51.6667 31.6668 51.6667Z" stroke="#FAFAFA" stroke-width="2" stroke-linecap="round" stroke-linejoin="round"/>
<path d="M48.3333 51.6667C50.1743 51.6667 51.6667 50.1743 51.6667 48.3333C51.6667 46.4924 50.1743 45 48.3333 45C46.4924 45 45 46.4924 45 48.3333C45 50.1743 46.4924 51.6667 48.3333 51.6667Z" stroke="#FAFAFA" stroke-width="2" stroke-linecap="round" stroke-linejoin="round"/>
<path d="M28.3335 48.3335H27.0002C25.8956 48.3335 25.0002 47.4381 25.0002 46.3335V41.6668M23.3335 28.3335H39.6668C40.7714 28.3335 41.6668 29.2289 41.6668 30.3335V48.3335M35.0002 48.3335H45.0002M51.6668 48.3335H53.0002C54.1047 48.3335 55.0002 47.4381 55.0002 46.3335V38.3335M55.0002 38.3335H41.6668M55.0002 38.3335L50.5828 30.9712C50.2213 30.3688 49.5703 30.0002 48.8678 30.0002H41.6668" stroke="#FAFAFA" stroke-width="2" stroke-linecap="round" stroke-linejoin="round"/>
<path d="M28 48H26.6667C25.5621 48 24.6667 47.1046 24.6667 46V41.3333M23 28H39.3333C40.4379 28 41.3333 28.8954 41.3333 30V48M35 48H44.6667M52 48H52.6667C53.7712 48 54.6667 47.1046 54.6667 46V38M54.6667 38H41.3333M54.6667 38L50.2493 30.6377C49.8878 30.0353 49.2368 29.6667 48.5343 29.6667H41.3333" stroke="#FAFAFA" stroke-width="2" stroke-linecap="round" stroke-linejoin="round"/>
<path d="M25 31.8181H31.6667" stroke="#FAFAFA" stroke-width="2" stroke-linecap="round" stroke-linejoin="round"/>
<path d="M21.8184 35.4546H28.485" stroke="#FAFAFA" stroke-width="2" stroke-linecap="round" stroke-linejoin="round"/>
<path d="M25 39.0908H31.6667" stroke="#FAFAFA" stroke-width="2" stroke-linecap="round" stroke-linejoin="round"/>
</g>
<defs>
<clipPath id="clip0_2154_1223">
<rect width="40" height="40" fill="white" transform="translate(20 20)"/>
</clipPath>
</defs>
</svg>
