<svg width="80" height="80" viewBox="0 0 80 80" fill="none" xmlns="http://www.w3.org/2000/svg">
<path opacity="0.3" d="M80 40C80 62.0914 62.0914 80 40 80C17.9086 80 0 62.0914 0 40C0 17.9086 17.9086 0 40 0C62.0914 0 80 17.9086 80 40ZM10.9071 40C10.9071 56.0675 23.9325 69.0929 40 69.0929C56.0675 69.0929 69.0929 56.0675 69.0929 40C69.0929 23.9325 56.0675 10.9071 40 10.9071C23.9325 10.9071 10.9071 23.9325 10.9071 40Z" fill="#2F2E30"/>
<circle cx="40" cy="40" r="29" fill="black"/>
<path d="M40.4277 49.7729H40.9277C41.5521 49.7729 42.1512 49.5249 42.5928 49.0835C43.0343 48.642 43.2821 48.0428 43.2822 47.4185C43.2822 46.7941 43.0343 46.195 42.5928 45.7534C42.1512 45.3119 41.5522 45.064 40.9277 45.064H40.4277V49.7729ZM39.0732 39.5005C38.4488 39.5005 37.8497 39.7484 37.4082 40.1899C36.9668 40.6315 36.7188 41.2306 36.7188 41.855C36.7189 42.4791 36.9669 43.0776 37.4082 43.519C37.8497 43.9606 38.4488 44.2095 39.0732 44.2095H39.5732V39.5005H39.0732ZM39.5732 45.064H39.0732C38.2222 45.0639 37.4055 44.7253 36.8037 44.1235C36.2022 43.5218 35.8644 42.7058 35.8643 41.855C35.8643 41.004 36.202 40.1872 36.8037 39.5854C37.4055 38.9837 38.2222 38.646 39.0732 38.646H39.5732V37.7183H40.4277V38.646H40.9277C41.5915 38.646 42.2393 38.8517 42.7812 39.2349C43.2552 39.5701 43.6282 40.0264 43.8623 40.5542L43.9541 40.7856C43.9726 40.8383 43.9805 40.894 43.9775 40.9497C43.9746 41.0057 43.9607 41.0612 43.9365 41.1118C43.9123 41.1624 43.8786 41.2081 43.8369 41.2456C43.7952 41.2831 43.7462 41.3119 43.6934 41.3306C43.6405 41.3492 43.5843 41.357 43.5283 41.354C43.4724 41.351 43.4177 41.3371 43.3672 41.313C43.265 41.2642 43.1862 41.1766 43.1484 41.0698C42.9861 40.6108 42.6847 40.2132 42.2871 39.9321C41.8895 39.6511 41.4147 39.5004 40.9277 39.5005H40.4277V44.2095H40.9277C41.7788 44.2095 42.5955 44.5471 43.1973 45.1489C43.799 45.7507 44.1367 46.5674 44.1367 47.4185C44.1366 48.2693 43.7988 49.0853 43.1973 49.687C42.5955 50.2888 41.7788 50.6274 40.9277 50.6274H40.4277V51.5542H39.5732V50.6274H39.0732C38.4095 50.6274 37.7617 50.4218 37.2197 50.0386C36.6779 49.6554 36.2682 49.1134 36.0469 48.4878L36.042 48.4741C36.0215 48.4209 36.0119 48.3641 36.0137 48.3071C36.0155 48.2501 36.0289 48.1939 36.0527 48.1421C36.0766 48.0902 36.1111 48.0439 36.1533 48.0054C36.1955 47.9669 36.245 47.9365 36.2988 47.9175C36.3526 47.8985 36.4099 47.8906 36.4668 47.894C36.5237 47.8975 36.5797 47.9127 36.6309 47.938C36.6819 47.9633 36.7275 47.9984 36.7646 48.0415C36.8019 48.0848 36.8302 48.1356 36.8477 48.1899L36.8496 48.1968L36.8525 48.2036C37.177 49.1183 38.0483 49.7729 39.0732 49.7729H39.5732V45.064Z" fill="#FAFAFA" stroke="#FAFAFA"/>
<path d="M40.0361 23.8093C43.9382 23.8093 47.4978 25.0427 49.7168 26.1199L49.8447 26.1824C50.284 26.3997 50.6638 26.6083 50.9766 26.7947L47.8457 31.3728L47.6143 31.7107L47.9014 32.0046C49.8396 33.9862 51.6698 36.5167 52.9805 39.1921C54.2934 41.8723 55.0683 44.6626 54.9414 47.1736C54.8155 49.6637 53.8056 51.8865 51.5166 53.5037C49.2054 55.1365 45.538 56.1882 40.0361 56.1882C34.5332 56.1882 30.8546 55.1546 28.5283 53.5437C26.2249 51.9486 25.1988 49.7544 25.0576 47.2859C24.9153 44.7954 25.6757 42.0152 26.9834 39.3201C28.2888 36.6299 30.1227 34.0593 32.0811 31.9988L32.3594 31.7068L32.1328 31.3738L29.0225 26.7966C29.1797 26.704 29.3538 26.6074 29.543 26.5066L29.5449 26.5056C29.7354 26.4032 29.9408 26.2977 30.1611 26.1902L30.2197 26.1619C32.4563 25.0758 36.0841 23.8094 40.0361 23.8093ZM46.957 32.698C42.6083 34.3797 37.3703 34.3799 33.0215 32.7L32.8418 33.1658L32.4756 32.8259C30.6577 34.7853 28.9657 37.19 27.751 39.6931C26.5598 42.1489 25.8686 44.6146 25.8955 46.8035L25.9102 47.2371C26.0376 49.4716 26.9493 51.4115 29.0127 52.8416C31.1392 54.3135 34.6197 55.3337 40.0352 55.3337C45.4465 55.3337 48.9126 54.2955 51.0215 52.8054C53.0713 51.3567 53.9725 49.3907 54.0869 47.1296C54.2038 44.813 53.4877 42.1696 52.2119 39.5671L52.2109 39.5652L51.9766 39.1042C50.7861 36.8112 49.2793 34.6957 47.5 32.8201L47.2695 32.5769L46.957 32.698ZM48.7627 27.0808C46.4933 27.2442 43.8596 27.7296 41.2637 28.4197L40.1553 28.7273C38.2952 29.2646 36.2165 29.2269 34.2295 28.9001L33.834 28.8308C33.3047 28.7327 32.7788 28.6165 32.2578 28.4812L30.9727 28.1472L31.7188 29.2458L33.499 31.8669L33.5908 32.0027L33.7451 32.0574C37.6692 33.4544 42.2998 33.4544 46.2246 32.0593L46.0566 31.5876L46.4697 31.8699L49.2119 27.8621L49.7969 27.0066L48.7627 27.0808ZM40.0352 24.6638C36.7535 24.6639 33.7063 25.5778 31.5801 26.4802L31.7754 26.9402L31.6328 27.4197C32.3895 27.6448 33.1819 27.8409 33.9873 27.99H33.9883C36.0232 28.3648 38.1082 28.43 39.917 27.906L39.918 27.905C41.8862 27.3317 43.8882 26.8813 45.9121 26.5554L45.9766 25.5828C44.2351 25.0585 42.1902 24.6638 40.0352 24.6638Z" fill="#FAFAFA" stroke="#FAFAFA"/>
</svg>
