<svg width="80" height="80" viewBox="0 0 80 80" fill="none" xmlns="http://www.w3.org/2000/svg">
<path opacity="0.3" d="M80 40C80 62.0914 62.0914 80 40 80C17.9086 80 0 62.0914 0 40C0 17.9086 17.9086 0 40 0C62.0914 0 80 17.9086 80 40ZM10.9071 40C10.9071 56.0675 23.9325 69.0929 40 69.0929C56.0675 69.0929 69.0929 56.0675 69.0929 40C69.0929 23.9325 56.0675 10.9071 40 10.9071C23.9325 10.9071 10.9071 23.9325 10.9071 40Z" fill="#2F2E30"/>
<circle cx="40" cy="40" r="29" fill="black"/>
<g clip-path="url(#clip0_2878_1237)">
<path d="M33.3332 45.0001C33.3332 43.1591 31.8408 41.6667 29.9998 41.6667C28.1589 41.6667 26.6665 43.1591 26.6665 45.0001V48.3334C26.6665 50.1744 28.1589 51.6667 29.9998 51.6667C31.8408 51.6667 33.3332 50.1744 33.3332 48.3334V45.0001Z" stroke="white" stroke-width="2" stroke-linecap="round" stroke-linejoin="round"/>
<path d="M53.3332 45.0001C53.3332 43.1591 51.8408 41.6667 49.9998 41.6667C48.1589 41.6667 46.6665 43.1591 46.6665 45.0001V48.3334C46.6665 50.1744 48.1589 51.6667 49.9998 51.6667C51.8408 51.6667 53.3332 50.1744 53.3332 48.3334V45.0001Z" stroke="white" stroke-width="2" stroke-linecap="round" stroke-linejoin="round"/>
<path d="M26.6665 45.0001V40.0001C26.6665 36.4639 28.0713 33.0725 30.5717 30.572C33.0722 28.0715 36.4636 26.6667 39.9998 26.6667C43.5361 26.6667 46.9274 28.0715 49.4279 30.572C51.9284 33.0725 53.3332 36.4639 53.3332 40.0001V45.0001" stroke="white" stroke-width="2" stroke-linecap="round" stroke-linejoin="round"/>
<path d="M50 51.6667C50 52.9928 48.9464 54.2646 47.0711 55.2023C45.1957 56.14 42.6522 56.6667 40 56.6667" stroke="white" stroke-width="2" stroke-linecap="round" stroke-linejoin="round"/>
</g>
<defs>
<clipPath id="clip0_2878_1237">
<rect width="40" height="40" fill="white" transform="translate(20 20)"/>
</clipPath>
</defs>
</svg>
