<svg width="80" height="80" viewBox="0 0 80 80" fill="none" xmlns="http://www.w3.org/2000/svg">
<path opacity="0.3" d="M80 40C80 62.0914 62.0914 80 40 80C17.9086 80 0 62.0914 0 40C0 17.9086 17.9086 0 40 0C62.0914 0 80 17.9086 80 40ZM10.9071 40C10.9071 56.0675 23.9325 69.0929 40 69.0929C56.0675 69.0929 69.0929 56.0675 69.0929 40C69.0929 23.9325 56.0675 10.9071 40 10.9071C23.9325 10.9071 10.9071 23.9325 10.9071 40Z" fill="#2F2E30"/>
<circle cx="40" cy="40" r="29" fill="black"/>
<path d="M31.6665 31.6667V28.3334C31.6665 27.3682 31.9459 26.4236 32.4709 25.6137C32.996 24.8038 33.7442 24.1632 34.6253 23.7691C35.5064 23.3751 36.4828 23.2445 37.4364 23.3931C38.3901 23.5418 39.2804 23.9633 39.9998 24.6067C40.7193 23.9633 41.6095 23.5418 42.5632 23.3931C43.5169 23.2445 44.4933 23.3751 45.3744 23.7691C46.2555 24.1632 47.0037 24.8038 47.5287 25.6137C48.0538 26.4236 48.3331 27.3682 48.3332 28.3334V31.6667H50.8332C51.4962 31.6667 52.1321 31.9301 52.6009 32.399C53.0698 32.8678 53.3332 33.5037 53.3332 34.1667V50.8417C53.3332 52.3866 52.7195 53.8682 51.6271 54.9606C50.5347 56.053 49.0531 56.6667 47.5082 56.6667H33.3332C31.5651 56.6667 29.8694 55.9643 28.6191 54.7141C27.3689 53.4639 26.6665 51.7682 26.6665 50.0001V34.1667C26.6665 33.5037 26.9299 32.8678 27.3987 32.399C27.8676 31.9301 28.5035 31.6667 29.1665 31.6667H31.6665ZM42.7248 54.1667C42.0449 53.1914 41.6813 52.0306 41.6832 50.8417V34.1667H29.1665V50.0001C29.1665 50.5472 29.2743 51.089 29.4837 51.5946C29.6931 52.1001 30 52.5594 30.3869 52.9463C30.7738 53.3332 31.2331 53.6402 31.7387 53.8496C32.2442 54.0589 32.786 54.1667 33.3332 54.1667H42.7248ZM39.1665 31.6667V28.3334C39.1665 27.6703 38.9031 27.0345 38.4343 26.5656C37.9654 26.0968 37.3295 25.8334 36.6665 25.8334C36.0035 25.8334 35.3676 26.0968 34.8987 26.5656C34.4299 27.0345 34.1665 27.6703 34.1665 28.3334V31.6667H39.1665ZM41.6665 31.6667H45.8332V28.3334C45.8332 27.8188 45.6745 27.3167 45.3786 26.8957C45.0827 26.4746 44.664 26.1552 44.1798 25.9809C43.6956 25.8066 43.1695 25.786 42.6731 25.9219C42.1768 26.0577 41.7344 26.3435 41.4065 26.7401C41.5748 27.2401 41.6665 27.7767 41.6665 28.3334V31.6667ZM44.1832 50.8417C44.1832 51.7236 44.5335 52.5693 45.157 53.1929C45.7806 53.8164 46.6263 54.1667 47.5082 54.1667C48.39 54.1667 49.2357 53.8164 49.8593 53.1929C50.4829 52.5693 50.8332 51.7236 50.8332 50.8417V34.1667H44.1832V50.8417Z" fill="white"/>
</svg>
