<svg width="80" height="80" viewBox="0 0 80 80" fill="none" xmlns="http://www.w3.org/2000/svg">
<path opacity="0.3" d="M80 40C80 62.0914 62.0914 80 40 80C17.9086 80 0 62.0914 0 40C0 17.9086 17.9086 0 40 0C62.0914 0 80 17.9086 80 40ZM10.9071 40C10.9071 56.0675 23.9325 69.0929 40 69.0929C56.0675 69.0929 69.0929 56.0675 69.0929 40C69.0929 23.9325 56.0675 10.9071 40 10.9071C23.9325 10.9071 10.9071 23.9325 10.9071 40Z" fill="#2F2E30"/>
<circle cx="40" cy="40" r="29" fill="black"/>
<path d="M54.1416 25H47.4883L48.3216 33.3333C48.3216 33.3333 49.9883 35 52.4883 35C53.8006 35.0017 55.0684 34.524 56.0533 33.6567C56.1574 33.5594 56.235 33.4372 56.2787 33.3016C56.3224 33.166 56.3309 33.0214 56.3033 32.8817L55.1266 25.8333C55.0873 25.6005 54.9668 25.3891 54.7865 25.2366C54.6062 25.084 54.3778 25.0002 54.1416 25V25Z" stroke="white" stroke-width="2"/>
<path d="M47.4883 25L48.3216 33.3333C48.3216 33.3333 46.6549 35 44.1549 35C41.6549 35 39.9883 33.3333 39.9883 33.3333V25H47.4883Z" stroke="#FAFAFA" stroke-width="2"/>
<path d="M39.9881 25V33.3333C39.9881 33.3333 38.3215 35 35.8215 35C33.3215 35 31.6548 33.3333 31.6548 33.3333L32.4881 25H39.9881Z" stroke="#FAFAFA" stroke-width="2"/>
<path d="M32.4883 25H25.8366C25.5999 24.9999 25.3709 25.0838 25.1902 25.2367C25.0096 25.3896 24.889 25.6016 24.8499 25.835L23.6749 32.8833C23.6475 33.0231 23.656 33.1676 23.6997 33.3032C23.7435 33.4387 23.821 33.5609 23.9249 33.6583C24.4716 34.1417 25.6933 35.0017 27.4883 35.0017C29.9883 35.0017 31.6549 33.335 31.6549 33.335L32.4883 25.0017V25Z" stroke="#FAFAFA" stroke-width="2"/>
<path d="M25 35V51.6667C25 52.5507 25.3512 53.3986 25.9763 54.0237C26.6014 54.6488 27.4493 55 28.3333 55H51.6667C52.5507 55 53.3986 54.6488 54.0237 54.0237C54.6488 53.3986 55 52.5507 55 51.6667V35" stroke="#FAFAFA" stroke-width="2"/>
<path d="M44.7217 55.0001V45.0001C44.7217 44.116 44.3705 43.2682 43.7454 42.6431C43.1202 42.0179 42.2724 41.6667 41.3883 41.6667H38.055C37.171 41.6667 36.3231 42.0179 35.698 42.6431C35.0729 43.2682 34.7217 44.116 34.7217 45.0001V55.0001" stroke="#FAFAFA" stroke-width="2" stroke-miterlimit="16"/>
</svg>
